<svg width="16" height="12" viewBox="0 0 16 12" fill="none" xmlns="http://www.w3.org/2000/svg">
<path class="svg-social" d="M15.3424 8.85844L13.2174 1.78344C13.1766 1.64035 13.1035 1.5085 13.0038 1.398C12.9042 1.2875 12.7805 1.20128 12.6424 1.14594H12.6049L12.6424 1.13344C11.9451 0.854061 11.2232 0.640628 10.4861 0.49594C10.4217 0.483205 10.3554 0.483288 10.291 0.496185C10.2266 0.509083 10.1654 0.534541 10.1108 0.571106C10.0563 0.607671 10.0095 0.654626 9.97305 0.70929C9.93664 0.763953 9.91136 0.825254 9.89865 0.88969C9.88498 0.953747 9.88419 1.01988 9.89633 1.08425C9.90847 1.14861 9.93329 1.20992 9.96936 1.2646C10.0054 1.31927 10.052 1.36623 10.1064 1.40273C10.1608 1.43923 10.2219 1.46454 10.2861 1.47719C10.5674 1.53344 10.8424 1.60219 11.1111 1.67719C11.2101 1.72857 11.2891 1.81157 11.3355 1.91299C11.3819 2.01442 11.393 2.12844 11.3672 2.23692C11.3413 2.34541 11.2799 2.44214 11.1928 2.51172C11.1056 2.5813 10.9977 2.61975 10.8861 2.62094H10.8361C9.873 2.36976 8.88151 2.24372 7.88615 2.24594C6.91418 2.24304 5.94586 2.36487 5.0049 2.60844C4.88516 2.64003 4.75796 2.62607 4.64793 2.56925C4.5379 2.51244 4.45287 2.41681 4.4093 2.30089C4.36574 2.18497 4.36674 2.05701 4.41211 1.94179C4.45748 1.82657 4.54399 1.73228 4.6549 1.67719H4.66115C4.9299 1.60219 5.2049 1.53344 5.48615 1.47719C5.55059 1.46448 5.61189 1.4392 5.66655 1.40279C5.72121 1.36639 5.76817 1.31957 5.80473 1.26501C5.8413 1.21045 5.86676 1.14923 5.87965 1.08483C5.89255 1.02043 5.89263 0.954121 5.8799 0.88969C5.85274 0.760364 5.77608 0.646785 5.66631 0.573213C5.55653 0.499642 5.42234 0.471909 5.2924 0.49594C4.55267 0.643864 3.8286 0.861502 3.1299 1.14594C2.99176 1.20128 2.86812 1.2875 2.76846 1.398C2.66879 1.5085 2.59574 1.64035 2.5549 1.78344L0.4299 8.85844C0.374772 9.04342 0.374354 9.24039 0.428696 9.4256C0.483038 9.6108 0.589818 9.77633 0.73615 9.90219C0.793645 9.95757 0.854153 10.0097 0.9174 10.0584H0.92365C1.93615 10.8834 3.2674 11.5147 4.7674 11.8772C4.80579 11.8895 4.84584 11.8958 4.88615 11.8959C5.00977 11.8979 5.12973 11.854 5.22288 11.7727C5.31602 11.6914 5.37573 11.5785 5.3905 11.4557C5.40526 11.3329 5.37402 11.2091 5.3028 11.108C5.23159 11.0069 5.12546 10.9358 5.0049 10.9084C4.33056 10.7455 3.67496 10.513 3.04865 10.2147C2.96293 10.1344 2.90823 10.0264 2.89413 9.9098C2.88004 9.79318 2.90747 9.67532 2.97159 9.57689C3.03572 9.47847 3.13245 9.40576 3.24483 9.37153C3.3572 9.3373 3.47804 9.34373 3.58615 9.38969C4.77365 9.91469 6.2674 10.2459 7.88615 10.2459C9.5049 10.2459 10.9986 9.91469 12.1861 9.38969C12.2943 9.34373 12.4151 9.3373 12.5275 9.37153C12.6398 9.40576 12.7366 9.47847 12.8007 9.57689C12.8648 9.67532 12.8923 9.79318 12.8782 9.9098C12.8641 10.0264 12.8094 10.1344 12.7236 10.2147C12.0973 10.513 11.4417 10.7455 10.7674 10.9084C10.6468 10.9358 10.5407 11.0069 10.4695 11.108C10.3983 11.2091 10.367 11.3329 10.3818 11.4557C10.3966 11.5785 10.4563 11.6914 10.5494 11.7727C10.6426 11.854 10.7625 11.8979 10.8861 11.8959C10.9265 11.8958 10.9665 11.8895 11.0049 11.8772C12.5049 11.5147 13.8361 10.8834 14.8486 10.0584H14.8549C14.9181 10.0097 14.9787 9.95757 15.0361 9.90219C15.1825 9.77633 15.2893 9.6108 15.3436 9.4256C15.3979 9.24039 15.3975 9.04342 15.3424 8.85844ZM5.88615 7.99594C5.73781 7.99594 5.59281 7.95195 5.46947 7.86954C5.34614 7.78713 5.25001 7.67 5.19324 7.53295C5.13647 7.39591 5.12162 7.24511 5.15056 7.09962C5.1795 6.95414 5.25093 6.8205 5.35582 6.71561C5.46071 6.61072 5.59435 6.53929 5.73983 6.51035C5.88532 6.48141 6.03612 6.49626 6.17316 6.55303C6.31021 6.6098 6.42734 6.70593 6.50975 6.82926C6.59216 6.9526 6.63615 7.0976 6.63615 7.24594C6.63615 7.44485 6.55713 7.63562 6.41648 7.77627C6.27583 7.91692 6.08506 7.99594 5.88615 7.99594ZM9.88615 7.99594C9.73781 7.99594 9.59281 7.95195 9.46947 7.86954C9.34614 7.78713 9.25001 7.67 9.19324 7.53295C9.13647 7.39591 9.12162 7.24511 9.15056 7.09962C9.1795 6.95414 9.25093 6.8205 9.35582 6.71561C9.46071 6.61072 9.59435 6.53929 9.73983 6.51035C9.88532 6.48141 10.0361 6.49626 10.1732 6.55303C10.3102 6.6098 10.4273 6.70593 10.5098 6.82926C10.5922 6.9526 10.6361 7.0976 10.6361 7.24594C10.6361 7.44485 10.5571 7.63562 10.4165 7.77627C10.2758 7.91692 10.0851 7.99594 9.88615 7.99594Z" fill="#6366F1"/>
</svg>
