<svg width="15" height="12" viewBox="0 0 15 12" fill="none" xmlns="http://www.w3.org/2000/svg">
<path d="M14.032 2.32395C13.9745 2.09353 13.8621 1.88047 13.7043 1.70304C13.5464 1.52561 13.3479 1.3891 13.1257 1.3052C10.9882 0.480201 7.57574 0.486452 7.38824 0.486452C7.20074 0.486452 3.78824 0.480201 1.65074 1.3052C1.42858 1.3891 1.23008 1.52561 1.07224 1.70304C0.914401 1.88047 0.80194 2.09353 0.744495 2.32395C0.581995 2.9427 0.388245 4.0802 0.388245 5.96145C0.388245 7.8427 0.581995 8.9802 0.744495 9.59895C0.80194 9.82937 0.914401 10.0424 1.07224 10.2199C1.23008 10.3973 1.42858 10.5338 1.65074 10.6177C3.70074 11.4115 6.91324 11.4365 7.34449 11.4365H7.43199C7.86324 11.4365 11.0757 11.4115 13.1257 10.6177C13.3479 10.5338 13.5464 10.3973 13.7043 10.2199C13.8621 10.0424 13.9745 9.82937 14.032 9.59895C14.1945 8.9802 14.3882 7.8427 14.3882 5.96145C14.3882 4.0802 14.1945 2.9427 14.032 2.32395ZM9.52574 6.1677L6.52574 8.1677C6.48596 8.19698 6.43764 8.21236 6.38824 8.21145C6.34684 8.20991 6.30629 8.19924 6.26949 8.1802C6.22955 8.15942 6.19614 8.12798 6.17297 8.08937C6.1498 8.05076 6.13778 8.00648 6.13824 7.96145V3.96145C6.13778 3.91642 6.1498 3.87215 6.17297 3.83354C6.19614 3.79492 6.22955 3.76348 6.26949 3.7427C6.30935 3.72144 6.35423 3.71137 6.39935 3.71357C6.44447 3.71578 6.48815 3.73016 6.52574 3.7552L9.52574 5.7552C9.5606 5.77716 9.58933 5.80759 9.60924 5.84366C9.62915 5.87973 9.63959 5.92025 9.63959 5.96145C9.63959 6.00265 9.62915 6.04318 9.60924 6.07924C9.58933 6.11531 9.5606 6.14575 9.52574 6.1677Z" fill="#DC2626"/>
</svg>
